<?xml version="1.0" standalone="no"?>
<!DOCTYPE svg PUBLIC "-//W3C//DTD SVG 20010904//EN"
 "http://www.w3.org/TR/2001/REC-SVG-20010904/DTD/svg10.dtd">
<svg version="1.0" xmlns="http://www.w3.org/2000/svg"
 height="32" viewBox="0 0 32 32"
 preserveAspectRatio="xMidYMid meet">

<g
fill="#000000" stroke="none">
<path d="M2200 4569 c-181 -30 -353 -128 -473 -268 -84 -97 -98 -160 -41 -181
34 -13 54 -1 99 60 53 72 147 153 223 193 171 89 332 106 593 61 63 -11 101
47 62 95 -35 42 -307 65 -463 40z"/>
<path d="M2832 4530 c-71 -36 -118 -86 -128 -135 -22 -120 55 -181 301 -241
98 -23 415 -74 466 -74 51 0 79 69 42 102 -12 10 -73 24 -173 38 -259 36 -449
83 -504 123 -29 21 -8 47 71 87 57 29 69 40 71 63 4 36 -22 67 -58 67 -15 0
-54 -14 -88 -30z"/>
<path d="M3185 4429 c-83 -12 -117 -55 -81 -104 12 -16 29 -18 162 -19 136 -1
155 -4 216 -28 37 -15 91 -43 120 -62 70 -48 110 -47 129 1 17 45 -14 80 -121
137 -123 65 -293 96 -425 75z"/>
<path d="M2333 4406 c-73 -24 -127 -62 -248 -176 -175 -164 -215 -181 -463
-186 -109 -2 -169 -7 -178 -15 -10 -8 -14 -26 -12 -48 5 -57 26 -63 213 -58
257 7 332 36 495 192 162 154 228 192 311 179 29 -5 41 -2 58 15 27 27 27 63
1 86 -27 24 -120 30 -177 11z"/>
<path d="M3822 4334 c-26 -18 -30 -65 -8 -87 8 -8 41 -18 73 -22 95 -12 157
-40 207 -96 40 -45 76 -119 76 -159 0 -26 -132 -14 -193 17 -133 67 -321 81
-507 39 -109 -25 -199 -59 -212 -79 -22 -35 5 -97 44 -97 8 0 48 12 89 26 100
34 206 54 292 54 76 0 79 -9 7 -29 -84 -23 -224 -80 -342 -140 -332 -169 -679
-439 -1038 -808 l-176 -180 -49 39 c-27 21 -61 46 -77 56 l-28 16 110 53 c160
77 270 186 309 306 9 27 19 36 52 46 73 22 102 77 59 116 -20 18 -28 18 -124
-5 -62 -15 -183 -1 -311 36 -103 29 -215 80 -215 96 0 14 46 75 82 110 37 34
38 81 3 104 -36 24 -66 12 -120 -48 -90 -100 -110 -186 -59 -247 48 -58 270
-147 409 -166 28 -3 62 -9 78 -11 l27 -6 -22 -40 c-47 -84 -179 -174 -332
-227 -82 -29 -95 -31 -180 -25 -81 6 -97 4 -144 -16 -101 -44 -167 -152 -197
-326 -8 -48 -15 -124 -15 -171 0 -76 2 -86 25 -109 19 -18 31 -23 48 -19 41
13 46 27 52 144 12 250 78 381 189 381 35 0 132 -33 182 -62 58 -33 163 -112
164 -122 0 -4 -31 -47 -69 -95 -92 -116 -172 -231 -266 -381 -43 -69 -84 -131
-90 -138 -11 -12 -32 -3 -121 49 -225 129 -728 359 -1017 464 l-77 28 41 76
c63 117 167 271 183 271 8 0 54 -9 103 -21 52 -13 126 -22 183 -22 191 -4 244
34 368 261 46 82 93 159 106 171 22 21 26 21 57 8 19 -8 86 -52 149 -99 162
-120 222 -152 285 -152 70 0 119 29 123 73 2 18 -2 39 -9 47 -13 16 -56 18
-92 5 -33 -13 -63 3 -229 122 -192 138 -246 158 -325 120 -43 -20 -84 -76
-159 -213 -114 -210 -126 -220 -261 -220 -78 1 -206 19 -219 33 -6 6 195 217
207 217 5 0 9 -31 9 -69 0 -61 3 -72 22 -85 31 -22 45 -20 73 9 22 21 25 33
25 98 0 90 -29 208 -74 304 -40 83 -70 109 -109 94 -42 -16 -44 -51 -7 -134
l32 -72 -54 -50 c-187 -171 -394 -444 -512 -675 -95 -185 -209 -484 -259 -680
-46 -179 -61 -286 -61 -455 -1 -178 11 -251 69 -410 150 -415 386 -615 725
-615 185 0 432 57 735 170 295 109 1192 469 1965 788 1014 418 1231 510 1289
545 190 114 303 330 327 628 26 322 -127 694 -405 991 -114 122 -219 196 -344
242 l-62 24 -13 63 c-37 187 -163 316 -336 348 -80 15 -107 14 -134 -5z m436
-524 c149 -42 268 -120 387 -256 269 -309 392 -647 341 -944 -19 -108 -47
-202 -84 -275 -34 -68 -135 -166 -209 -203 -121 -62 -1903 -797 -2634 -1087
-677 -269 -842 -324 -1103 -370 -260 -45 -445 15 -591 192 -92 112 -185 316
-221 486 -21 103 -16 103 12 2 13 -49 48 -137 76 -195 43 -86 66 -118 128
-180 86 -87 154 -124 259 -142 144 -25 307 23 433 126 121 99 221 243 480 691
348 602 462 769 742 1082 541 606 1175 1026 1651 1093 89 13 249 3 333 -20z
m-3768 -1368 c193 -75 401 -164 570 -242 202 -93 490 -249 490 -265 0 -3 -12
-24 -26 -47 l-26 -41 -34 40 c-91 109 -269 161 -379 111 -23 -10 -29 -7 -75
41 -27 28 -69 61 -92 71 -46 21 -130 26 -171 11 -21 -8 -27 -4 -58 37 -44 60
-117 109 -172 116 -23 3 -86 8 -139 12 l-97 6 34 96 c19 54 35 98 35 100 0 6
26 -2 140 -46z m-72 -284 c117 3 170 -33 195 -134 17 -68 45 -77 125 -41 33
15 69 27 81 27 48 0 105 -47 150 -123 38 -63 64 -67 136 -18 39 27 124 28 180
2 50 -22 97 -70 120 -121 l17 -39 -97 -168 c-54 -92 -125 -208 -159 -258 -81
-120 -214 -254 -288 -288 -109 -52 -247 -53 -343 -5 -61 32 -145 126 -187 209
-55 113 -55 115 -11 129 80 26 130 83 159 181 15 49 15 53 -4 78 -27 37 -64
39 -91 5 -11 -15 -21 -33 -21 -40 0 -7 -8 -29 -17 -48 -18 -39 -78 -75 -95
-58 -46 46 -62 531 -22 675 7 24 55 48 79 40 11 -4 53 -6 93 -5z"/>
<path d="M4476 3441 c-14 -15 -16 -30 -11 -82 8 -84 -12 -117 -93 -158 -68
-34 -82 -61 -53 -101 24 -33 47 -35 104 -11 63 27 132 93 153 146 22 59 16
175 -10 204 -24 26 -67 27 -90 2z"/>
<path d="M3916 3191 c-19 -21 -20 -29 -10 -122 5 -55 3 -71 -15 -106 -24 -47
-66 -83 -134 -113 -25 -11 -53 -27 -62 -36 -35 -35 -5 -94 48 -94 40 0 132 47
185 95 87 78 120 184 98 311 -13 74 -71 108 -110 65z"/>
<path d="M3381 3051 c-17 -17 -19 -29 -14 -91 l6 -70 -42 -40 c-23 -22 -48
-40 -55 -40 -7 0 -25 -9 -40 -21 -19 -15 -26 -30 -26 -54 0 -59 50 -71 128
-31 57 29 106 77 134 130 27 52 23 183 -6 215 -24 26 -60 27 -85 2z"/>
<path d="M2607 2872 c-13 -15 -15 -31 -10 -84 7 -83 -10 -111 -97 -157 -59
-32 -61 -34 -58 -69 2 -27 10 -40 30 -51 25 -15 31 -14 81 11 104 51 158 116
172 209 8 51 -7 120 -31 144 -21 20 -67 19 -87 -3z"/>
<path d="M4535 2669 c-13 -14 -19 -36 -20 -71 0 -50 -1 -52 -44 -77 -48 -29
-63 -54 -50 -89 20 -53 86 -47 159 15 41 34 60 79 60 141 0 85 -60 131 -105
81z"/>
<path d="M3410 2390 c-23 -23 -23 -25 -11 -102 18 -107 -21 -171 -143 -236
-75 -40 -92 -64 -72 -103 38 -77 249 33 314 164 72 144 1 366 -88 277z"/>
<path d="M2052 1824 c-20 -14 -22 -23 -20 -89 4 -90 -12 -116 -93 -158 -29
-16 -57 -34 -61 -40 -24 -38 8 -87 56 -87 73 0 195 103 217 184 6 23 9 68 6
101 -5 48 -11 64 -32 82 -31 27 -43 28 -73 7z"/>
<path d="M2782 1784 c-19 -13 -22 -23 -20 -75 3 -66 -7 -81 -81 -121 -17 -10
-34 -24 -37 -33 -10 -26 5 -65 30 -76 32 -15 116 22 160 72 60 66 72 175 24
226 -25 27 -45 29 -76 7z"/>
<path d="M627 1772 c-26 -29 -20 -64 21 -128 107 -165 239 -182 410 -53 55 42
67 76 40 111 -25 31 -53 30 -104 -5 -120 -83 -153 -87 -212 -23 -22 24 -47 57
-56 74 -23 45 -70 56 -99 24z"/>
<path d="M2444 4190 c-143 -37 -245 -109 -324 -226 -59 -90 -66 -133 -24 -161
23 -15 29 -15 52 -2 14 8 39 37 55 64 68 118 178 194 312 215 86 14 162 7 283
-27 104 -29 136 -24 148 22 11 43 -16 69 -98 93 -159 46 -287 53 -404 22z"/>
<path d="M2542 3999 c-96 -16 -168 -64 -212 -142 -50 -87 -36 -191 33 -241 25
-19 30 -19 54 -6 39 22 45 50 21 97 -25 49 -20 78 19 118 40 40 83 55 161 55
84 0 195 -27 304 -75 92 -40 118 -43 141 -17 18 20 21 40 11 67 -14 36 -242
126 -354 139 -110 14 -126 14 -178 5z"/>
<path d="M1196 3886 c-31 -30 -32 -46 -8 -76 28 -34 192 -63 372 -64 134 -1
149 1 193 23 80 39 97 91 42 127 -21 14 -27 13 -71 -7 -40 -18 -66 -21 -158
-21 -94 0 -234 17 -323 39 -15 3 -30 -3 -47 -21z"/>
<path d="M2711 3700 c-91 -93 -202 -123 -377 -100 -87 12 -96 11 -114 -5 -25
-22 -26 -67 -2 -88 40 -36 259 -49 361 -22 84 22 157 64 211 121 55 58 65 98
32 127 -31 29 -60 20 -111 -33z"/>
<path d="M1146 3692 c-74 -26 -112 -90 -78 -132 24 -29 66 -29 97 0 22 21 31
22 102 17 50 -3 119 -18 189 -41 127 -41 145 -43 167 -18 22 24 21 58 -2 81
-36 36 -306 112 -394 111 -18 -1 -54 -9 -81 -18z"/>
<path d="M1550 3120 c-124 -21 -250 -89 -331 -178 -59 -64 -132 -204 -126
-240 4 -18 1 -22 -12 -17 -9 4 -50 18 -91 32 -140 48 -334 29 -407 -39 -32
-30 -28 -77 9 -97 25 -14 31 -14 75 8 65 33 187 40 269 16 79 -22 165 -71 248
-142 105 -90 110 -92 143 -67 46 34 42 59 -18 120 -29 29 -74 68 -101 86 -49
34 -59 48 -33 48 9 0 31 33 55 83 55 116 103 168 203 217 67 33 99 42 177 51
74 8 99 15 113 31 23 27 22 44 -8 73 -26 27 -72 31 -165 15z"/>
</g>
</svg>
